#!OML:ASF I:\Actors\actors\Patient Classification 2\Patient 1\Session 1\actor1.ASF
:FULLY-SPECIFIED
:DEGREES
278
root -0.680679 18.7073 5.62778 0.661491 2.64251 -3.85448
lowerback 6.82944 2.97273 -0.0553446
upperback -0.159818 3.91174 -1.08343
thorax -3.91706 1.93174 -1.48145
lowerneck -5.02168 -9.51656 -11.1828
upperneck 13.2689 -13.0846 9.12752
head 6.18316 -6.37441 3.66478
rclavicle -2.87244e-014 1.51076e-014
rhumerus 2.84091 13.5539 -48.2647
rradius 68.5209
rwrist -18.8673
rhand 11.1841 -68.1411
rfingers 7.12502
rthumb 36.2486 94.3961
lclavicle -2.87244e-014 1.51076e-014
lhumerus -42.8547 -2.31735 88.2476
lradius 50.2877
lwrist -0.187747
lhand -9.61948 -26.7587
lfingers 7.12502
lthumb 16.35 2.57207
rfemur 0 0 0
rtibia 0
rfoot 0 0
rtoes 0
lfemur -7.04399 -7.0455 -10.2875
ltibia 24.3118
lfoot -21.4802 11.9274
ltoes -56.1238
279
root -0.680019 18.7068 5.63023 0.64304 2.59834 -3.83327
lowerback 6.76556 2.9736 -0.0922392
upperback -0.161651 3.90807 -1.14327
thorax -3.88148 1.93045 -1.51842
lowerneck -5.03967 -9.50416 -11.5173
upperneck 13.3137 -13.1219 9.67281
head 6.26402 -6.37425 3.88236
rclavicle 2.49475e-014 -1.59028e-014
rhumerus 3.6338 13.461 -47.4006
rradius 68.5946
rwrist -19.6112
rhand 11.9199 -68.7119
rfingers 7.12502
rthumb 36.9449 94.7906
lclavicle 2.49475e-014 -1.59028e-014
lhumerus -42.8115 -2.45615 88.2737
lradius 50.3585
lwrist -0.102649
lhand -9.565 -26.5102
lfingers 7.12502
lthumb 16.4025 2.81626
rfemur 0 0 0
rtibia 0
rfoot 0 0
rtoes 0
lfemur -6.99949 -6.97524 -10.3126
ltibia 24.3044
lfoot -21.4915 11.883
ltoes -56.0958
280
root -0.679087 18.7063 5.63343 0.646662 2.56323 -3.8168
lowerback 6.66118 2.96318 -0.12561
upperback -0.182135 3.88988 -1.20576
thorax -3.84243 1.92189 -1.55694
lowerneck -4.94862 -9.46884 -11.5126
upperneck 13.2382 -13.1041 9.83914
head 6.23326 -6.35907 3.94154
rclavicle 4.35835e-014 -3.73715e-014
rhumerus 4.37819 13.3232 -46.6066
rradius 68.6858
rwrist -20.3625
rhand 12.655 -69.6784
rfingers 7.12502
rthumb 37.6399 95.5747
lclavicle 4.35835e-014 -3.73715e-014
lhumerus -42.8087 -2.46873 88.2474
lradius 50.4487
lwrist -0.0795789
lhand -9.5238 -26.0916
lfingers 7.12502
lthumb 16.4422 3.2316
rfemur 0 0 0
rtibia 0
rfoot 0 0
rtoes 0
lfemur -6.97482 -6.96841 -10.3388
ltibia 24.2993
lfoot -21.5403 11.8838
ltoes -56.0513
281
root -0.677962 18.7056 5.63728 0.638861 2.50495 -3.8432
lowerback 6.56946 2.96477 -0.105494
upperback -0.194651 3.8927 -1.24871
thorax -3.79953 1.92295 -1.60756
lowerneck -4.86975 -9.43239 -11.3191
upperneck 13.1111 -13.0604 9.7675
head 6.15662 -6.33699 3.89934
rclavicle 1.25234e-014 3.97569e-015
rhumerus 5.15693 13.0596 -45.79
rradius 68.7291
rwrist -20.8595
rhand 13.8342 -70.6377
rfingers 7.12502
rthumb 38.7532 96.228
lclavicle 1.25234e-014 3.97569e-015
lhumerus -42.7942 -2.39762 88.1512
lradius 50.3694
lwrist -0.0519609
lhand -9.49765 -26.4195
lfingers 7.12502
lthumb 16.4674 2.90164
rfemur 0 0 0
rtibia 0
rfoot 0 0
rtoes 0
lfemur -6.93081 -7.00021 -10.322
ltibia 24.2939
lfoot -21.5936 11.9353
ltoes -56.0438
282
root -0.677358 18.7046 5.64137 0.597593 2.41738 -3.87993
lowerback 6.5345 2.98498 -0.092949
upperback -0.192415 3.92019 -1.26796
thorax -3.77474 1.93644 -1.63474
lowerneck -4.89373 -9.42356 -11.2108
upperneck 13.0369 -13.0493 9.75434
head 6.12787 -6.32739 3.87954
rclavicle 3.67752e-015 2.3059e-014
rhumerus 6.02732 12.7572 -44.8506
rradius 68.7632
rwrist -21.2272
rhand 14.7461 -70.6085
rfingers 7.12502
rthumb 39.6126 95.9503
lclavicle 3.67752e-015 2.3059e-014
lhumerus -42.7615 -2.39604 88.1165
lradius 50.305
lwrist 0.0401832
lhand -9.50353 -26.8349
lfingers 7.12502
lthumb 16.4617 2.48673
rfemur 0 0 0
rtibia 0
rfoot 0 0
rtoes 0
lfemur -6.83775 -7.02821 -10.2996
ltibia 24.2882
lfoot -21.6731 12.0293
ltoes -56.0817
283
root -0.677391 18.7034 5.64565 0.552627 2.33335 -3.8875
lowerback 6.53407 3.00165 -0.136471
upperback -0.209762 3.93824 -1.28466
thorax -3.7938 1.94587 -1.63012
lowerneck -4.95329 -9.40259 -11.1602
upperneck 13.0176 -13.0256 9.79736
head 6.12877 -6.30939 3.88536
rclavicle -1.77912e-014 -5.56597e-015
rhumerus 6.9077 12.5158 -43.893
rradius 68.8307
rwrist -21.8047
rhand 15.1305 -70.6238
rfingers 7.12502
rthumb 39.9744 95.8576
lclavicle -1.77912e-014 -5.56597e-015
lhumerus -42.7369 -2.37973 88.1106
lradius 50.2944
lwrist 0.0166762
lhand -9.5515 -26.8955
lfingers 7.12502
lthumb 16.4155 2.42991
rfemur 0 0 0
rtibia 0
rfoot 0 0
rtoes 0
lfemur -6.74071 -7.02435 -10.3113
ltibia 24.2822
lfoot -21.7332 12.1341
ltoes -56.1506
284
root -0.677444 18.7027 5.64889 0.540657 2.29803 -3.87328
lowerback 6.52405 3.00174 -0.181459
upperback -0.257787 3.93279 -1.33089
thorax -3.8379 1.94316 -1.65351
lowerneck -4.95631 -9.34188 -11.1142
upperneck 13.0089 -12.9679 9.93424
head 6.12602 -6.27126 3.92787
rclavicle 2.0773e-014 0
rhumerus 7.66697 12.18 -43.1074
rradius 68.9245
rwrist -22.3381
rhand 15.3453 -70.8053
rfingers 7.12502
rthumb 40.1765 95.9779
lclavicle 2.0773e-014 0
lhumerus -42.6848 -2.18249 88
lradius 50.1971
lwrist -0.241906
lhand -9.61605 -26.9094
lfingers 7.12502
lthumb 16.3534 2.42113
rfemur 0 0 0
rtibia 0
rfoot 0 0
rtoes 0
lfemur -6.71347 -6.94635 -10.3278
ltibia 24.2784
lfoot -21.6846 12.1109
ltoes -56.1737
285
root -0.679236 18.7035 5.64928 0.601526 2.36836 -3.84554
lowerback 6.48225 2.98132 -0.214322
upperback -0.326951 3.90003 -1.4043
thorax -3.88404 1.9264 -1.70795
lowerneck -4.90242 -9.27641 -11.0244
upperneck 12.9487 -12.9118 10.0892
head 6.09568 -6.23321 3.97246
rclavicle -1.28713e-014 -6.36111e-015
rhumerus 8.35117 11.734 -42.3962
rradius 69.0308
rwrist -22.836
rhand 15.6122 -70.7843
rfingers 7.12502
rthumb 40.4276 95.8799
lclavicle -1.28713e-014 -6.36111e-015
lhumerus -42.5986 -2.10088 87.9362
lradius 50.2025
lwrist -0.382569
lhand -9.7322 -26.4789
lfingers 7.12502
lthumb 16.2415 2.86085
rfemur 0 0 0
rtibia 0
rfoot 0 0
rtoes 0
lfemur -6.80779 -6.86437 -10.3277
ltibia 24.2767
lfoot -21.5902 11.9835
ltoes -56.1601
286
root -0.682882 18.7056 5.6482 0.725989 2.53007 -3.83599
lowerback 6.39133 2.94103 -0.225865
upperback -0.399259 3.84333 -1.46834
thorax -3.90574 1.89764 -1.7595
lowerneck -4.87288 -9.2248 -10.9308
upperneck 12.8647 -12.8631 10.197
head 6.05955 -6.20086 3.99968
rclavicle -6.49032e-014 1.82882e-014
rhumerus 9.10184 11.2853 -41.6101
rradius 69.1158
rwrist -23.526
rhand 16.1942 -71.4159
rfingers 7.12502
rthumb 40.9745 96.3404
lclavicle -6.49032e-014 1.82882e-014
lhumerus -42.5165 -2.27792 87.9701
lradius 50.2909
lwrist -0.240402
lhand -9.73893 -26.0695
lfingers 7.12502
lthumb 16.235 3.27078
rfemur 0 0 0
rtibia 0
rfoot 0 0
rtoes 0
lfemur -6.99671 -6.84882 -10.2926
ltibia 24.2774
lfoot -21.4966 11.8879
ltoes -56.2397
287
root -0.683997 18.7075 5.65044 0.816665 2.63041 -3.86562
lowerback 6.27179 2.91691 -0.18245
upperback -0.448307 3.81374 -1.51242
thorax -3.88435 1.88185 -1.82102
lowerneck -4.95234 -9.18104 -10.8396
upperneck 12.8812 -12.8148 10.251
head 6.07035 -6.16733 4.00413
rclavicle -3.3694e-014 6.36111e-015
rhumerus 9.81073 10.77 -40.9228
rradius 69.2185
rwrist -24.2027
rhand 16.7735 -72.4479
rfingers 7.12502
rthumb 41.5183 97.1973
lclavicle -3.3694e-014 6.36111e-015
lhumerus -42.4462 -2.3931 87.9308
lradius 50.1894
lwrist -0.130268
lhand -9.66737 -26.5938
lfingers 7.12502
lthumb 16.3039 2.7408
rfemur 0 0 0
rtibia 0
rfoot 0 0
rtoes 0
lfemur -7.12017 -6.8807 -10.239
ltibia 24.2842
lfoot -21.505 11.8569
ltoes -56.2716
288
root -0.682998 18.7087 5.65478 0.838392 2.66067 -3.92038
lowerback 6.17866 2.91357 -0.090186
upperback -0.463557 3.81564 -1.55222
thorax -3.83901 1.88102 -1.90851
lowerneck -5.09538 -9.15747 -10.5339
upperneck 12.9135 -12.773 10.0548
head 6.06713 -6.13967 3.89273
rclavicle 2.76808e-014 -1.27222e-014
rhumerus 10.3816 10.1403 -40.4135
rradius 69.3844
rwrist -24.8049
rhand 17.0387 -73.0341
rfingers 7.12502
rthumb 41.7671 97.7017
lclavicle 2.76808e-014 -1.27222e-014
lhumerus -42.3762 -2.44902 87.8599
lradius 50.0731
lwrist -0.120707
lhand -9.71902 -27.0903
lfingers 7.12502
lthumb 16.2542 2.24839
rfemur 0 0 0
rtibia 0
rfoot 0 0
rtoes 0
lfemur -7.14487 -6.9174 -10.1793
ltibia 24.2975
lfoot -21.5812 11.8485
ltoes -56.2164
289
root -0.682531 18.7084 5.65901 0.809932 2.69686 -3.98091
lowerback 6.12598 2.90843 0.0180094
upperback -0.44898 3.81649 -1.58102
thorax -3.78523 1.87964 -1.99471
lowerneck -5.19768 -9.14228 -10.1069
upperneck 12.8468 -12.7297 9.71881
head 6.00881 -6.11674 3.72195
rclavicle -1.48095e-014 2.22639e-014
rhumerus 10.9631 9.44334 -39.924
rradius 69.5774
rwrist -25.4433
rhand 17.2132 -73.3257
rfingers 7.12502
rthumb 41.9307 97.9389
lclavicle -1.48095e-014 2.22639e-014
lhumerus -42.3182 -2.53645 87.8512
lradius 50.0888
lwrist -0.0736965
lhand -9.82186 -27.1038
lfingers 7.12502
lthumb 16.1552 2.24293
rfemur 0 0 0
rtibia 0
rfoot 0 0
rtoes 0
lfemur -7.11701 -6.96711 -10.1174
ltibia 24.3086
lfoot -21.5934 11.847
ltoes -56.2522
